<svg xmlns="http://www.w3.org/2000/svg" xmlns:xlink="http://www.w3.org/1999/xlink" viewBox="0 0 43.99 43.69"><defs><style>.cls-1{fill:url(#Gradiente_sem_nome_3);}.cls-2{fill:url(#Gradiente_sem_nome_3-2);}.cls-3{fill:none;stroke-linecap:round;stroke-miterlimit:10;stroke-width:4px;stroke:url(#Gradiente_sem_nome_3-3);}.cls-4{fill:url(#Gradiente_sem_nome_3-4);}.cls-5{fill:url(#Gradiente_sem_nome_3-5);}.cls-6{fill:url(#Gradiente_sem_nome_3-6);}</style><linearGradient id="Gradiente_sem_nome_3" x1="27.9" y1="8.52" x2="43.99" y2="8.52" gradientUnits="userSpaceOnUse"><stop offset="0" stop-color="#ff8632"/><stop offset="1" stop-color="#ffc332"/></linearGradient><linearGradient id="Gradiente_sem_nome_3-2" x1="27.9" y1="17.41" x2="31.9" y2="17.41" xlink:href="#Gradiente_sem_nome_3"/><linearGradient id="Gradiente_sem_nome_3-3" x1="11.5" y1="33.47" x2="31.92" y2="33.47" xlink:href="#Gradiente_sem_nome_3"/><linearGradient id="Gradiente_sem_nome_3-4" x1="0" y1="2.18" x2="24.63" y2="2.18" xlink:href="#Gradiente_sem_nome_3"/><linearGradient id="Gradiente_sem_nome_3-5" x1="0" y1="9.35" x2="24.63" y2="9.35" xlink:href="#Gradiente_sem_nome_3"/><linearGradient id="Gradiente_sem_nome_3-6" x1="0" y1="16.52" x2="24.63" y2="16.52" xlink:href="#Gradiente_sem_nome_3"/></defs><title>Ativo 4</title><g id="Camada_2" data-name="Camada 2"><g id="Camada_1-2" data-name="Camada 1"><path class="cls-1" d="M29.9,17a2,2,0,0,1-1.12-3.66l9-6.06L29.15,3.86A2,2,0,0,1,30.64.15L42.74,5a2,2,0,0,1,.37,3.51L31,16.71A2,2,0,0,1,29.9,17Z"/><path class="cls-2" d="M29.9,34.74a2,2,0,0,1-2-2V2.08a2,2,0,0,1,4,0V32.74A2,2,0,0,1,29.9,34.74Z"/><circle class="cls-3" cx="21.71" cy="33.47" r="8.21"/><path class="cls-4" d="M22.63,4.18H2a2,2,0,0,1,0-4H22.63a2,2,0,0,1,0,4Z"/><path class="cls-5" d="M22.63,11.35H2a2,2,0,0,1,0-4H22.63a2,2,0,0,1,0,4Z"/><path class="cls-6" d="M22.63,18.52H2a2,2,0,0,1,0-4H22.63a2,2,0,0,1,0,4Z"/></g></g></svg>