<svg id="Layer_1" data-name="Layer 1" xmlns="http://www.w3.org/2000/svg" viewBox="0 0 1576 490.5"><defs><style>.cls-1{fill:#4c3686;}.cls-2{fill:#fabb34;}.cls-3{fill:#502c88;}.cls-4{fill:#fcbb30;}.cls-5,.cls-6{fill:none;stroke:#502c88;stroke-miterlimit:10;}.cls-5{stroke-width:20px;}.cls-6{stroke-width:15px;}.cls-7{fill:#622e7e;}</style></defs><title>icons</title><rect class="cls-1" x="47.06" y="317.65" width="29.41" height="17.65"/><rect class="cls-1" x="100" y="317.65" width="17.65" height="17.65"/><rect class="cls-1" x="123.53" y="35.29" width="17.65" height="17.65"/><rect class="cls-1" x="82.35" y="35.29" width="23.53" height="17.65"/><rect class="cls-1" x="47.06" y="35.29" width="17.65" height="17.65"/><rect class="cls-1" x="141.18" y="317.65" width="317.65" height="17.65"/><polygon class="cls-2" points="192.72 79.38 192.72 240.46 332.22 159.92 192.72 79.38"/><rect class="cls-3" width="17.65" height="364.71"/><rect class="cls-3" x="241.18" y="105.88" width="17.65" height="500" transform="translate(-105.88 605.88) rotate(-90)"/><rect class="cls-3" x="241.18" y="47.06" width="17.65" height="500" transform="translate(-47.06 547.06) rotate(-90)"/><rect class="cls-3" x="241.18" y="-241.18" width="17.65" height="500" transform="translate(241.18 258.82) rotate(-90)"/><rect class="cls-3" x="482.35" width="17.65" height="364.71"/><circle class="cls-4" cx="787" cy="250" r="126.58"/><circle class="cls-5" cx="787" cy="250" r="178.97"/><circle class="cls-6" cx="787" cy="250" r="233"/><rect class="cls-3" x="730.04" y="193.04" width="12.66" height="113.92" transform="translate(486.37 986.37) rotate(-90)"/><rect class="cls-3" x="780.67" y="142.41" width="12.66" height="113.92" transform="translate(1574 398.73) rotate(180)"/><rect class="cls-7" x="780.67" y="101.27" width="12.66" height="12.66"/><rect class="cls-7" x="638.27" y="243.67" width="12.66" height="12.66"/><rect class="cls-7" x="923.08" y="243.67" width="12.66" height="12.66"/><rect class="cls-7" x="787" y="386.08" width="12.66" height="12.66"/><rect class="cls-2" x="632.14" y="95.14" width="14.86" height="14.86" transform="translate(114.8 482.29) rotate(-45)"/><rect class="cls-2" x="632.14" y="390" width="14.86" height="14.86" transform="translate(-93.7 568.65) rotate(-45)"/><rect class="cls-2" x="927" y="95.14" width="14.86" height="14.86" transform="translate(201.16 690.78) rotate(-45)"/><rect class="cls-2" x="933.55" y="383.45" width="14.86" height="14.86" transform="translate(-0.78 779.86) rotate(-45)"/><path class="cls-7" d="M937.49,313.81" transform="translate(0 0)"/><rect class="cls-3" x="1076" width="500" height="20.43" rx="1" ry="1"/><rect class="cls-3" x="1076" y="336.81" width="500" height="20.43" rx="1" ry="1"/><rect class="cls-3" x="1555.57" width="20.43" height="357.23" rx="1" ry="1"/><rect class="cls-3" x="1076" width="20.43" height="357.23" rx="1" ry="1"/><rect class="cls-3" x="1116" y="38.24" width="420" height="20" rx="0.82" ry="0.82"/><rect class="cls-3" x="1116" y="300" width="420" height="20" rx="0.82" ry="0.82"/><rect class="cls-3" x="1116" y="40" width="20" height="280" rx="0.82" ry="0.82"/><rect class="cls-3" x="1516" y="40" width="20" height="280" rx="0.82" ry="0.82"/><rect class="cls-2" x="1159.89" y="93.37" width="96.11" height="83.26"/><rect class="cls-2" x="1396" y="93.37" width="96.11" height="83.26"/><rect class="cls-7" x="1146" y="210" width="230" height="10"/><rect class="cls-7" x="1146" y="240" width="230" height="10"/><rect class="cls-7" x="1146" y="270" width="230" height="10"/><rect class="cls-7" x="1406" y="240" width="100" height="10"/><rect class="cls-7" x="1406" y="210" width="100" height="10"/><rect class="cls-7" x="1406" y="270" width="100" height="10"/><rect class="cls-7" x="1156" y="70" width="10" height="10"/><rect class="cls-7" x="1176" y="70" width="10" height="10"/><rect class="cls-7" x="1196" y="70" width="10" height="10"/><rect class="cls-2" x="1279.89" y="93.37" width="96.11" height="83.26"/><rect class="cls-3" x="1246" y="350" width="20" height="60"/><rect class="cls-3" x="1376" y="350" width="20" height="60"/><rect class="cls-3" x="1196" y="400" width="250" height="20"/></svg>