<svg id="Camada_1" data-name="Camada 1" xmlns="http://www.w3.org/2000/svg" viewBox="0 0 394 394"><defs><style>.cls-1{fill:#412764;}.cls-2{fill:#ffb933;}</style></defs><title>diff1</title><circle class="cls-1" cx="197" cy="197" r="197"/><path class="cls-2" d="M127.47,285.07V150.75c-.13-7.23,4.25-10,10.75-10.75H263.58c7.45-.29,10.83,4.11,10.75,12.54v91.34c-.21,8-5.23,12-14.33,12.54H156.12Z" transform="translate(-3 -3)"/><path class="cls-1" d="M153.59,212.78h-3.93a.86.86,0,0,1-1-1V184a.86.86,0,0,1,1-1h11.29a7.62,7.62,0,0,1,5.6,2,7.49,7.49,0,0,1,2,5.58V195a7.49,7.49,0,0,1-2,5.58,7.62,7.62,0,0,1-5.6,2h-5.83c-.37,0-.55.17-.55.51v8.74A.86.86,0,0,1,153.59,212.78Zm1.48-15.36H160a2.82,2.82,0,0,0,2.08-.62,2.91,2.91,0,0,0,.6-2.06v-3.89a3,3,0,0,0-.6-2.11,2.82,2.82,0,0,0-2.08-.62h-4.9a.45.45,0,0,0-.51.51v8.28A.45.45,0,0,0,155.07,197.42Z" transform="translate(-3 -3)"/><path class="cls-1" d="M182.41,212.78h-3.89q-1,0-1-1V188.63a.45.45,0,0,0-.51-.51h-5.27a.86.86,0,0,1-1-1V184a.86.86,0,0,1,1-1h17.49a.86.86,0,0,1,1,1v3.15a.86.86,0,0,1-1,1h-5.27q-.55,0-.55.51v23.18A.86.86,0,0,1,182.41,212.78Z" transform="translate(-3 -3)"/><path class="cls-1" d="M202.31,200.38h-8.79a.86.86,0,0,1-1-1v-2.73c0-.68.33-1,1-1h8.79q1,0,1,1v2.73A.86.86,0,0,1,202.31,200.38Z" transform="translate(-3 -3)"/><path class="cls-1" d="M208.13,211.81V184a.86.86,0,0,1,1-1h11.1a7.74,7.74,0,0,1,5.64,1.94,7.41,7.41,0,0,1,2,5.55v1.9a4.85,4.85,0,0,1-3.66,5.09,4.82,4.82,0,0,1,3,1.5,5,5,0,0,1,1.11,3.49v2.78a7.41,7.41,0,0,1-2,5.55,7.68,7.68,0,0,1-5.6,1.94H209.11A.86.86,0,0,1,208.13,211.81Zm6.39-16.7h4.72a3.19,3.19,0,0,0,2.18-.62,2.66,2.66,0,0,0,.69-2.06v-1.8a2.71,2.71,0,0,0-.67-2.06,3.09,3.09,0,0,0-2.15-.62h-4.77a.45.45,0,0,0-.51.51v6.15A.45.45,0,0,0,214.52,195.11Zm0,12.77h5.18a3.17,3.17,0,0,0,2.2-.62,2.72,2.72,0,0,0,.67-2.06v-2.68a2.57,2.57,0,0,0-.69-2,3.44,3.44,0,0,0-2.27-.6h-5.09a.45.45,0,0,0-.51.51v7A.45.45,0,0,0,214.52,207.88Z" transform="translate(-3 -3)"/><path class="cls-1" d="M238.72,212.78h-3.93a.86.86,0,0,1-1-1V184a.86.86,0,0,1,1-1h11a7.74,7.74,0,0,1,5.65,2,7.48,7.48,0,0,1,2,5.6v3.61q0,5.23-4.12,6.94v.19l5,10.32q.41,1.11-.79,1.11h-3.75a2.86,2.86,0,0,1-1.2-.19,1.37,1.37,0,0,1-.6-.79l-4.63-10h-3.1q-.55,0-.55.51v9.48A.86.86,0,0,1,238.72,212.78Zm1.48-15.68h4.53a3.19,3.19,0,0,0,2.17-.62,2.59,2.59,0,0,0,.69-2v-3.61a2.74,2.74,0,0,0-.69-2.08,3.11,3.11,0,0,0-2.17-.65H240.2a.45.45,0,0,0-.51.51v8A.45.45,0,0,0,240.2,197.1Z" transform="translate(-3 -3)"/></svg>