<svg xmlns="http://www.w3.org/2000/svg" xmlns:xlink="http://www.w3.org/1999/xlink" viewBox="0 0 83.74 35"><defs><style>.cls-1{fill:url(#linear-gradient);}.cls-2{fill:url(#linear-gradient-2);}.cls-3{fill:url(#linear-gradient-3);}.cls-4{fill:url(#linear-gradient-4);}.cls-5{fill:url(#linear-gradient-5);}.cls-6{fill:url(#linear-gradient-6);}.cls-7{fill:url(#linear-gradient-7);}.cls-8{fill:url(#linear-gradient-8);}.cls-9{fill:url(#linear-gradient-9);}</style><linearGradient id="linear-gradient" x1="50.21" y1="25.57" x2="56.39" y2="14.86" gradientUnits="userSpaceOnUse"><stop offset="0" stop-color="#fff"/><stop offset="1" stop-color="#fff" stop-opacity="0.5"/></linearGradient><linearGradient id="linear-gradient-2" x1="67.45" y1="10.47" x2="73.02" y2="20.12" xlink:href="#linear-gradient"/><linearGradient id="linear-gradient-3" x1="43.77" x2="43.77" y2="25.97" gradientUnits="userSpaceOnUse"><stop offset="0" stop-color="#fff"/><stop offset="1" stop-color="#fff" stop-opacity="0.7"/></linearGradient><linearGradient id="linear-gradient-4" x1="23.32" y1="11.17" x2="34.04" y2="17.36" xlink:href="#linear-gradient"/><linearGradient id="linear-gradient-5" x1="16.81" y1="26.65" x2="19.73" y2="23.74" gradientUnits="userSpaceOnUse"><stop offset="0" stop-color="#fff" stop-opacity="0.7"/><stop offset="1" stop-color="#fff"/></linearGradient><linearGradient id="linear-gradient-6" x1="0.02" y1="25.75" x2="14.11" y2="11.65" gradientUnits="userSpaceOnUse"><stop offset="0" stop-color="#fff" stop-opacity="0.6"/><stop offset="1" stop-color="#fff"/></linearGradient><linearGradient id="linear-gradient-7" x1="21.48" y1="31.09" x2="39.91" y2="20.45" gradientUnits="userSpaceOnUse"><stop offset="0" stop-color="#fff" stop-opacity="0.8"/><stop offset="1" stop-color="#fff"/></linearGradient><linearGradient id="linear-gradient-8" x1="68.53" y1="34.7" x2="82.65" y2="10.25" xlink:href="#linear-gradient-5"/><linearGradient id="linear-gradient-9" x1="56.72" y1="10.51" x2="65.48" y2="25.67" xlink:href="#linear-gradient-3"/></defs><title>logo</title><g id="Camada_2" data-name="Camada 2"><g id="header"><path class="cls-1" d="M57.81,16.76l-4.69,8.12a2.17,2.17,0,0,1-1.32,1,2.21,2.21,0,0,1-.57.07,2.18,2.18,0,0,1-2.1-1.61,2.15,2.15,0,0,1,.22-1.66L55.92,11.3A2.18,2.18,0,0,0,55.71,13a2.38,2.38,0,0,0,.22.53l.18.31Z"/><path class="cls-2" d="M75,19.17l-2.51,4.35-6-10.3A2.18,2.18,0,0,1,68.41,10,2.26,2.26,0,0,1,69,10a2.19,2.19,0,0,1,1.32,1Z"/><path class="cls-3" d="M43.77,26a2.18,2.18,0,0,1-2.18-2.18V2.18a2.18,2.18,0,1,1,4.36,0V23.79A2.18,2.18,0,0,1,43.77,26Z"/><path class="cls-4" d="M37.49,16.83a2.13,2.13,0,0,0-1.11-.3,2.25,2.25,0,0,0-.57.07,2.42,2.42,0,0,0-.53.22L35,17l-3,1.72L23.91,14a2.15,2.15,0,0,1-1-1.32A2.17,2.17,0,0,1,24.44,10,2.16,2.16,0,0,1,25,10a2.22,2.22,0,0,1,1.09.29Z"/><circle class="cls-5" cx="18.27" cy="25.2" r="2.06"/><path class="cls-6" d="M2.27,27.23a1.89,1.89,0,1,1,0-3.78H9.41a1.13,1.13,0,0,0,.31-2.21L3.57,19.61A4.91,4.91,0,0,1,4.91,10h6.76a1.89,1.89,0,1,1,0,3.78H4.91A1.13,1.13,0,0,0,4.6,16l6.15,1.62a4.91,4.91,0,0,1-1.33,9.63Z"/><path class="cls-7" d="M37.48,20.6l-.32.19h0l-10,5.76v6.23a2.23,2.23,0,0,1-.51,1.44,2.18,2.18,0,0,1-2,.76,2.13,2.13,0,0,1-1-.42,2.17,2.17,0,0,1-.86-1.74V25.29h0v0s0-.08,0-.12V25h0v-.09l0-.13v0h0v0l0-.14v-.07l.05-.12,0,0,0,0,0-.07,0-.05,0-.07,0,0,0,0,.08-.11,0,0,0,0,.1-.11,0,0h0l0,0,.1-.09.07-.06h0l.08-.06.1-.06,0,0h0L32,18.71,35,17l.3-.17a2.15,2.15,0,0,1,1.09-.29,2.18,2.18,0,0,1,1.09,4.07Z"/><path class="cls-8" d="M69.62,35a2.18,2.18,0,0,1-1.89-3.27L79.67,11A2.17,2.17,0,0,1,81,10a2.18,2.18,0,0,1,2.67,1.54,2.16,2.16,0,0,1-.22,1.65L71.51,33.91A2.18,2.18,0,0,1,69.62,35Z"/><path class="cls-9" d="M66.49,24.35a2.18,2.18,0,0,1-4,.53l-4.69-8.12-1.71-3-.18-.31a2.18,2.18,0,0,1,1.32-3.19,2.18,2.18,0,0,1,2.45,1l.19.33h0l.44.76,5.95,10.3A2.17,2.17,0,0,1,66.49,24.35Z"/></g></g></svg>