<?xml version="1.0" encoding="utf-8"?>
<!-- Generator: Adobe Illustrator 21.1.0, SVG Export Plug-In . SVG Version: 6.00 Build 0)  -->
<svg version="1.1" id="Camada_1" xmlns="http://www.w3.org/2000/svg" xmlns:xlink="http://www.w3.org/1999/xlink" x="0px" y="0px"
	 viewBox="0 0 1366.1 692.6" style="enable-background:new 0 0 1366.1 692.6;" xml:space="preserve">
<style type="text/css">
	.st0{clip-path:url(#SVGID_2_);}
	.st1{fill:#FFFFFF;}
	.st2{clip-path:url(#SVGID_4_);fill:url(#SVGID_5_);}
	.st3{opacity:0.3;clip-path:url(#SVGID_7_);enable-background:new    ;}
	.st4{clip-path:url(#SVGID_9_);fill:#FFFFFF;}
	.st5{opacity:0.3;clip-path:url(#SVGID_11_);enable-background:new    ;}
	.st6{clip-path:url(#SVGID_13_);fill:url(#SVGID_14_);}
	.st7{clip-path:url(#SVGID_16_);}
	.st8{clip-path:url(#SVGID_16_);fill:url(#SVGID_17_);}
	.st9{clip-path:url(#SVGID_16_);fill:#FFFFFF;}
	.st10{clip-path:url(#SVGID_16_);fill:url(#SVGID_18_);}
</style>
<title>Artboard 1</title>
<g>
	<g id="Layer_1">
		<g>
			<g>
				<g>
					<defs>
						<rect id="SVGID_1_" x="-1900.4" y="-745.6" width="1366" height="692.5"/>
					</defs>
					<clipPath id="SVGID_2_">
						<use xlink:href="#SVGID_1_"  style="overflow:visible;"/>
					</clipPath>
					<g class="st0">
						<path class="st1" d="M-1708.3-706.3c18.1-32.4,59-44.1,91.5-26l0,0l582.2,324.5c15.6,8.6,27.1,23.2,31.9,40.4
							c4.9,17.1,2.8,35.6-5.9,51.1c-8.6,15.6-23.2,27.1-40.3,31.9c-17.1,4.9-35.6,2.8-51.1-5.9l-582.3-324.5
							C-1714.7-632.9-1726.4-673.8-1708.3-706.3C-1708.3-706.2-1708.3-706.2-1708.3-706.3z"/>
					</g>
				</g>
			</g>
			<g>
				<g>
					<defs>
						<rect id="SVGID_3_" x="-1900.4" y="-745.6" width="1366" height="692.5"/>
					</defs>
					<clipPath id="SVGID_4_">
						<use xlink:href="#SVGID_3_"  style="overflow:visible;"/>
					</clipPath>
					
						<linearGradient id="SVGID_5_" gradientUnits="userSpaceOnUse" x1="1366.1641" y1="-1599.6007" x2="1366.1641" y2="-184.3007" gradientTransform="matrix(-0.4999 0.87 0.87 0.4999 401.4583 -842.6673)">
						<stop  offset="0" style="stop-color:#FFCD32"/>
						<stop  offset="1" style="stop-color:#FF8C32"/>
					</linearGradient>
					<path class="st2" d="M-1674-455.9c59.4-102.9,155.4-176.6,270.2-207.4s234.8-15,337.7,44.5l454.8,262.5
						c103,59.4,176.6,155.4,207.4,270.2s15,234.7-44.4,337.7S-603.7,428.2-718.5,459s-234.7,15-337.7-44.4L-1511.1,152
						C-1614,92.6-1687.6-3.4-1718.4-118.2C-1749.2-233-1733.4-353-1674-455.9z"/>
				</g>
			</g>
			<g>
				<g>
					<defs>
						<rect id="SVGID_6_" x="-1900.4" y="-745.6" width="1366" height="692.5"/>
					</defs>
					<clipPath id="SVGID_7_">
						<use xlink:href="#SVGID_6_"  style="overflow:visible;"/>
					</clipPath>
					<g class="st3">
					</g>
				</g>
			</g>
			<g>
				<g>
					<defs>
						<rect id="SVGID_8_" x="-1900.4" y="-745.6" width="1366" height="692.5"/>
					</defs>
					<clipPath id="SVGID_9_">
						<use xlink:href="#SVGID_8_"  style="overflow:visible;"/>
					</clipPath>
					<path class="st4" d="M-996.8-600.5c21.6-37.4,69.3-50.2,106.7-28.6l0,0l670.4,387c18,10.3,31.1,27.4,36.4,47.4
						c5.4,20,2.6,41.3-7.8,59.3c-10.3,18-27.4,31.1-47.4,36.4c-20,5.4-41.3,2.6-59.3-7.8l-670.4-387
						C-1005.6-515.4-1018.4-563.2-996.8-600.5C-996.9-600.5-996.8-600.5-996.8-600.5z"/>
				</g>
			</g>
			<g>
				<g>
					<defs>
						<rect id="SVGID_10_" x="-1900.4" y="-745.6" width="1366" height="692.5"/>
					</defs>
					<clipPath id="SVGID_11_">
						<use xlink:href="#SVGID_10_"  style="overflow:visible;"/>
					</clipPath>
					<g class="st5">
					</g>
				</g>
			</g>
			<g>
				<g>
					<defs>
						<rect id="SVGID_12_" x="-1900.4" y="-745.6" width="1366" height="692.5"/>
					</defs>
					<clipPath id="SVGID_13_">
						<use xlink:href="#SVGID_12_"  style="overflow:visible;"/>
					</clipPath>
					
						<linearGradient id="SVGID_14_" gradientUnits="userSpaceOnUse" x1="1599.1575" y1="62.2868" x2="4524.9707" y2="62.2868" gradientTransform="matrix(-1 7.271727e-05 7.271727e-05 1 2231.9849 192.4083)">
						<stop  offset="0" style="stop-color:#FFCD32"/>
						<stop  offset="0.23" style="stop-color:#FFC832"/>
						<stop  offset="0.5" style="stop-color:#FFBA32"/>
						<stop  offset="0.78" style="stop-color:#FFA332"/>
						<stop  offset="1" style="stop-color:#FF8C32"/>
					</linearGradient>
					<path class="st6" d="M-2256-568.2c76.3-132.2,245.3-177.5,377.5-101.2l0,0l2373,1369.8c63.6,36.5,110,96.9,128.8,167.8
						c19.2,70.8,9.2,146.3-27.6,209.7c-36.5,63.6-96.9,110-167.8,128.8c-70.8,19.2-146.3,9.2-209.7-27.6l-2373-1369.7
						C-2287-266.9-2332.3-435.9-2256-568.2L-2256-568.2z"/>
				</g>
			</g>
		</g>
	</g>
	<g>
		<path class="st1" d="M-1512.8-456c-6.5,11.3-20.9,15.1-32.2,8.6l0,0l-202.2-116.7c-5.4-3.1-9.4-8.3-11-14.3s-0.8-12.5,2.4-17.9
			c3.1-5.4,8.3-9.4,14.3-11c6-1.6,12.5-0.8,17.9,2.4l202.2,116.7C-1510.2-481.7-1506.3-467.3-1512.8-456L-1512.8-456z"/>
	</g>
</g>
<g>
	<defs>
		<rect id="SVGID_15_" x="0" y="0.1" width="1366" height="692.5"/>
	</defs>
	<clipPath id="SVGID_16_">
		<use xlink:href="#SVGID_15_"  style="overflow:visible;"/>
	</clipPath>
	<g class="st7">
		
			<image style="overflow:visible;opacity:0.3;enable-background:new    ;" width="1007" height="724" xlink:href="185A27D3.png"  transform="matrix(-0.8646 6.355458e-03 -6.355458e-03 -0.8646 1031.3673 547.9812)">
		</image>
		<path class="st1" d="M243.9,48.5C262.3,16,303.5,4.6,336,23c0,0,0,0,0,0l582.1,330.4c15.6,8.8,27,23.5,31.8,40.8
			c4.8,17.3,2.5,35.7-6.4,51.3c-8.8,15.6-23.5,27-40.8,31.8c-17.3,4.8-35.7,2.5-51.3-6.4L269.3,140.5
			C236.9,122.1,225.5,80.9,243.9,48.5C243.9,48.5,243.9,48.5,243.9,48.5z"/>
	</g>
	
		<linearGradient id="SVGID_17_" gradientUnits="userSpaceOnUse" x1="5.7265" y1="1699.7949" x2="5.7265" y2="3115.0903" gradientTransform="matrix(-0.4993 0.8704 0.8704 0.4993 -1249.3279 -561.5325)">
		<stop  offset="0" style="stop-color:#FFCD32"/>
		<stop  offset="1" style="stop-color:#FF8C32"/>
	</linearGradient>
	<path class="st8" d="M226.4,290.1c59.3-103,155.3-176.7,270-207.6s234.7-15.2,337.8,44.2l455,262.2
		c103,59.4,176.8,155.3,207.6,270.1s15.2,234.7-44.2,337.7c-59.4,103-155.3,176.7-270.1,207.6c-114.8,30.9-234.7,15.2-337.7-44.2
		L389.8,897.8c-103-59.3-176.7-155.3-207.5-270S167.1,393.1,226.4,290.1z"/>
	<g style="opacity:0.3;clip-path:url(#SVGID_16_);enable-background:new    ;">
		
			<image style="overflow:visible;" width="1007" height="724" xlink:href="185A27D6.png"  transform="matrix(-1 7.799571e-04 -7.799571e-04 -1 1810.3485 728.6658)">
		</image>
	</g>
	<path class="st9" d="M903.5,145c21.5-37.4,69.3-50.2,106.6-28.7c0,0,0,0,0,0l670.7,386.6c18,10.3,31.1,27.4,36.4,47.4
		c5.4,20,2.6,41.3-7.8,59.3c-10.3,18-27.4,31.1-47.4,36.4c-20,5.4-41.3,2.6-59.3-7.8L932.1,251.6C894.8,230.1,881.9,182.4,903.5,145
		C903.5,145,903.5,145,903.5,145z"/>
	<g style="opacity:0.3;clip-path:url(#SVGID_16_);enable-background:new    ;">
		
			<image style="overflow:visible;" width="3107" height="2104" xlink:href="185A27D5.png"  transform="matrix(-1 7.799571e-04 -7.799571e-04 -1 2487.3723 1992.9182)">
		</image>
	</g>
	
		<linearGradient id="SVGID_18_" gradientUnits="userSpaceOnUse" x1="-1951.453" y1="528.5145" x2="974.4743" y2="528.5145" gradientTransform="matrix(-1 7.799560e-04 7.799560e-04 1 581.9366 472.2402)">
		<stop  offset="0" style="stop-color:#FFCD32"/>
		<stop  offset="0.23" style="stop-color:#FFC832"/>
		<stop  offset="0.5" style="stop-color:#FFBA32"/>
		<stop  offset="0.78" style="stop-color:#FFA332"/>
		<stop  offset="1" style="stop-color:#FF8C32"/>
	</linearGradient>
	<path class="st10" d="M-355.7,178.2C-279.5,46-110.5,0.6,21.8,76.8c0,0,0,0,0,0l2373.9,1368.1c63.7,36.4,110.1,96.8,128.9,167.7
		c19.2,70.8,9.3,146.3-27.4,209.7c-36.4,63.6-96.8,110.1-167.7,128.9c-70.8,19.2-146.3,9.3-209.7-27.4L-254.2,555.7
		C-386.5,479.5-431.9,310.5-355.7,178.2L-355.7,178.2z"/>
	<g class="st7">
		
			<image style="overflow:visible;opacity:0.3;enable-background:new    ;" width="1007" height="724" xlink:href="185A27DC.png"  transform="matrix(-0.3022 2.357209e-04 -2.357209e-04 -0.3022 447.8961 350.4632)">
		</image>
		<path class="st1" d="M173.8,174.1c6.5-11.3,20.9-15.2,32.2-8.7c0,0,0,0,0,0l202.7,116.8c5.4,3.1,9.4,8.3,11,14.3
			c1.6,6,0.8,12.5-2.3,17.9c-3.1,5.4-8.3,9.4-14.3,11c-6,1.6-12.5,0.8-17.9-2.3L182.5,206.3C171.2,199.8,167.3,185.4,173.8,174.1
			C173.8,174.1,173.8,174.1,173.8,174.1z"/>
	</g>
</g>
</svg>
