<?xml version="1.0" encoding="utf-8"?>
<!-- Generator: Adobe Illustrator 21.1.0, SVG Export Plug-In . SVG Version: 6.00 Build 0)  -->
<svg version="1.1" id="Camada_1" xmlns="http://www.w3.org/2000/svg" xmlns:xlink="http://www.w3.org/1999/xlink" x="0px" y="0px"
	 viewBox="0 0 1366.1 692.6" style="enable-background:new 0 0 1366.1 692.6;" xml:space="preserve">
<style type="text/css">
	.st0{clip-path:url(#SVGID_2_);}
	.st1{fill:#FFFFFF;}
	.st2{clip-path:url(#SVGID_2_);fill:url(#SVGID_3_);}
	.st3{clip-path:url(#SVGID_2_);fill:#FFFFFF;}
	.st4{clip-path:url(#SVGID_2_);fill:url(#SVGID_4_);}
</style>
<title>Artboard 1</title>
<g>
	<g id="Layer_1">
		<g>
			<defs>
				<rect id="SVGID_1_" x="0" y="0" width="1366" height="692.5"/>
			</defs>
			<clipPath id="SVGID_2_">
				<use xlink:href="#SVGID_1_"  style="overflow:visible;"/>
			</clipPath>
			<g class="st0">
				
					<image style="overflow:visible;opacity:0.3;enable-background:new    ;" width="1007" height="724" xlink:href="6F96F65.png"  transform="matrix(-0.8609 1.301605e-02 -1.301605e-02 -0.8609 906.156 446.8727)">
				</image>
				<path class="st1" d="M118.1-44.5c18.1-32.4,59-44.1,91.5-26c0,0,0,0,0,0l582.2,324.5c15.6,8.6,27.1,23.2,31.9,40.4
					c4.9,17.1,2.8,35.6-5.9,51.1c-8.6,15.6-23.2,27.1-40.3,31.9c-17.1,4.9-35.6,2.8-51.1-5.9L144.1,47C111.7,28.9,100-12,118.1-44.5
					C118.1-44.4,118.1-44.4,118.1-44.5z"/>
			</g>
			
				<linearGradient id="SVGID_3_" gradientUnits="userSpaceOnUse" x1="469.7696" y1="951.2168" x2="469.7696" y2="2366.5168" gradientTransform="matrix(-0.4999 0.87 0.87 0.4999 -365.4484 -592.4438)">
				<stop  offset="0" style="stop-color:#FFCD32"/>
				<stop  offset="1" style="stop-color:#FF8C32"/>
			</linearGradient>
			<path class="st2" d="M226.4,289.7c59.4-102.9,155.4-176.6,270.2-207.4s234.8-15,337.7,44.5l454.8,262.5
				c103,59.4,176.6,155.4,207.4,270.2s15,234.7-44.4,337.7s-155.4,176.6-270.2,207.4s-234.7,15-337.7-44.4L389.3,897.6
				C286.4,838.2,212.8,742.2,182,627.4S167,392.6,226.4,289.7z"/>
			<g style="opacity:0.3;clip-path:url(#SVGID_2_);enable-background:new    ;">
				
					<image style="overflow:visible;" width="1007" height="724" xlink:href="6F96F63.png"  transform="matrix(-1 7.271728e-05 -7.271728e-05 -1 1810.0278 729.408)">
				</image>
			</g>
			<path class="st3" d="M903.6,145.1c21.6-37.4,69.3-50.2,106.7-28.6c0,0,0,0,0,0l670.4,387c18,10.3,31.1,27.4,36.4,47.4
				c5.4,20,2.6,41.3-7.8,59.3c-10.3,18-27.4,31.1-47.4,36.4c-20,5.4-41.3,2.6-59.3-7.8l-670.4-387
				C894.8,230.2,882,182.4,903.6,145.1C903.5,145.1,903.6,145.1,903.6,145.1z"/>
			<g style="opacity:0.3;clip-path:url(#SVGID_2_);enable-background:new    ;">
				
					<image style="overflow:visible;" width="3107" height="2104" xlink:href="6F96F6D.png"  transform="matrix(-1 7.271728e-05 -7.271728e-05 -1 2624.1233 2042.3489)">
				</image>
			</g>
			
				<linearGradient id="SVGID_4_" gradientUnits="userSpaceOnUse" x1="-1167.2415" y1="1002.1314" x2="1758.6868" y2="1002.1314" gradientTransform="matrix(-1 7.271727e-05 7.271727e-05 1 1365.9752 -1.5602)">
				<stop  offset="0" style="stop-color:#FFCD32"/>
				<stop  offset="0.23" style="stop-color:#FFC832"/>
				<stop  offset="0.5" style="stop-color:#FFBA32"/>
				<stop  offset="0.78" style="stop-color:#FFA332"/>
				<stop  offset="1" style="stop-color:#FF8C32"/>
			</linearGradient>
			<path class="st4" d="M-355.6,177.4C-279.3,45.2-110.3-0.1,21.9,76.2c0,0,0,0,0,0l2373,1369.8c63.6,36.5,110,96.9,128.8,167.8
				c19.2,70.8,9.2,146.3-27.6,209.7c-36.5,63.6-96.9,110-167.8,128.8c-70.8,19.2-146.3,9.2-209.7-27.6L-254.4,555
				C-386.6,478.7-431.9,309.7-355.6,177.4L-355.6,177.4z"/>
		</g>
	</g>
	<g>
		
			<image style="overflow:visible;opacity:0.3;enable-background:new    ;" width="1007" height="724" xlink:href="6F96F6E.png"  transform="matrix(0.3016 0 0 0.3016 112.2222 116.353)">
		</image>
		<path class="st1" d="M387.6,289.6c-6.5,11.3-20.9,15.1-32.2,8.6c0,0,0,0,0,0L153.2,181.5c-5.4-3.1-9.4-8.3-11-14.3
			c-1.6-6-0.8-12.5,2.4-17.9c3.1-5.4,8.3-9.4,14.3-11c6-1.6,12.5-0.8,17.9,2.4L379,257.4C390.2,263.9,394.1,278.3,387.6,289.6
			C387.6,289.6,387.6,289.6,387.6,289.6z"/>
	</g>
</g>
</svg>
