<?xml version="1.0" encoding="utf-8"?>
<!-- Generator: Adobe Illustrator 21.1.0, SVG Export Plug-In . SVG Version: 6.00 Build 0)  -->
<svg version="1.1" id="Camada_1" xmlns="http://www.w3.org/2000/svg" xmlns:xlink="http://www.w3.org/1999/xlink" x="0px" y="0px"
	 viewBox="0 0 1366.1 692.6" style="enable-background:new 0 0 1366.1 692.6;" xml:space="preserve">
<style type="text/css">
	.st0{clip-path:url(#SVGID_2_);}
	.st1{fill:url(#SVGID_3_);}
	.st2{fill:#FFFFFF;}
	.st3{fill:url(#SVGID_4_);}
	.st4{fill:url(#SVGID_5_);}
	.st5{fill:url(#SVGID_6_);}
	.st6{fill:url(#SVGID_7_);}
	.st7{fill:url(#SVGID_8_);}
	.st8{fill:url(#SVGID_9_);}
	.st9{fill:url(#SVGID_10_);}
	.st10{fill:url(#SVGID_11_);}
	.st11{fill:url(#SVGID_12_);}
	.st12{fill:url(#SVGID_13_);}
</style>
<title>Artboard 1</title>
<g>
	<g id="Layer_1">
		<g>
			<defs>
				<rect id="SVGID_1_" width="1366" height="692.5"/>
			</defs>
			<clipPath id="SVGID_2_">
				<use xlink:href="#SVGID_1_"  style="overflow:visible;"/>
			</clipPath>
			<g class="st0">
				
					<linearGradient id="SVGID_3_" gradientUnits="userSpaceOnUse" x1="871.0435" y1="1274.4202" x2="871.0435" y2="2689.7202" gradientTransform="matrix(0.5 -0.87 -0.87 -0.5 1811.9301 1795.72)">
					<stop  offset="0" style="stop-color:#FFCD32"/>
					<stop  offset="1" style="stop-color:#FF8C32"/>
				</linearGradient>
				<path class="st1" d="M1139.6,402.8c-59.4,102.9-155.4,176.6-270.2,207.4s-234.8,15-337.7-44.5L76.8,303.1
					c-103-59.4-176.6-155.4-207.4-270.2s-15-234.8,44.5-337.7S69.3-481.4,184.1-512.2s234.7-15,337.7,44.5l454.9,262.6
					c102.9,59.4,176.6,155.4,207.3,270.2S1199,299.9,1139.6,402.8z"/>
				
					<image style="overflow:visible;opacity:0.3;enable-background:new    ;" width="1007" height="724" xlink:href="56F0AA0.png"  transform="matrix(1 0 0 1 -444 -37)">
				</image>
				<path class="st2" d="M462.4,547.4c-21.6,37.4-69.3,50.2-106.7,28.6c0,0,0,0,0,0l-670.4-387.1c-18-10.3-31.1-27.4-36.4-47.4
					c-5.4-20-2.6-41.3,7.8-59.3c10.3-18,27.4-31.1,47.4-36.4c20-5.4,41.3-2.6,59.3,7.8l670.4,387.1C471.2,462.3,484,510,462.4,547.4
					C462.4,547.4,462.4,547.4,462.4,547.4z"/>
				
					<image style="overflow:visible;opacity:0.3;enable-background:new    ;" width="3107" height="2104" xlink:href="56F0AA1.png"  transform="matrix(1 0 0 1 -1258 -1350)">
				</image>
				
					<linearGradient id="SVGID_4_" gradientUnits="userSpaceOnUse" x1="-1167.2421" y1="1000.1309" x2="1758.6863" y2="1000.1309" gradientTransform="matrix(1 0 0 -1 0 692)">
					<stop  offset="0" style="stop-color:#FFCD32"/>
					<stop  offset="0.23" style="stop-color:#FFC832"/>
					<stop  offset="0.5" style="stop-color:#FFBA32"/>
					<stop  offset="0.78" style="stop-color:#FFA332"/>
					<stop  offset="1" style="stop-color:#FF8C32"/>
				</linearGradient>
				<path class="st3" d="M1721.6,515.1c-76.3,132.2-245.3,177.5-377.5,101.2c0,0,0,0,0,0l-2372.9-1370
					c-63.6-36.5-110-96.9-128.8-167.8c-19.2-70.8-9.2-146.3,27.6-209.7c36.5-63.6,96.9-110,167.8-128.8
					c70.8-19.2,146.3-9.2,209.7,27.6l2373,1370C1752.6,213.9,1797.9,382.9,1721.6,515.1L1721.6,515.1z"/>
			</g>
		</g>
	</g>
</g>
<image style="overflow:visible;enable-background:new    ;" width="1440" height="367" xlink:href="../senai-transparente.png"  transform="matrix(0.261 0 0 0.261 918.9137 45)">
</image>
<g id="Camada_2">
	<g id="header">
		
			<linearGradient id="SVGID_5_" gradientUnits="userSpaceOnUse" x1="-1134.1493" y1="-1703.7433" x2="-1090.5468" y2="-1779.3033" gradientTransform="matrix(1 0 0 1 1918.92 2065.54)">
			<stop  offset="0" style="stop-color:#FFFFFF"/>
			<stop  offset="1" style="stop-color:#FFFFFF;stop-opacity:0.5"/>
		</linearGradient>
		<path class="st4" d="M838.2,299.7l-32.7,57.4c-2.1,3.6-5.4,6.1-9.2,7.1c-1.3,0.3-2.6,0.5-4,0.5c-6.9,0-12.9-4.7-14.7-11.4
			c-1.1-4-0.5-8.2,1.5-11.7l45.9-80.5c-2.1,3.6-2.6,8-1.5,12c0.4,1.3,0.9,2.6,1.5,3.7l1.3,2.2L838.2,299.7z"/>
		
			<linearGradient id="SVGID_6_" gradientUnits="userSpaceOnUse" x1="-1013.562" y1="-1810.2939" x2="-974.2663" y2="-1742.213" gradientTransform="matrix(1 0 0 1 1918.92 2065.54)">
			<stop  offset="0" style="stop-color:#FFFFFF"/>
			<stop  offset="1" style="stop-color:#FFFFFF;stop-opacity:0.5"/>
		</linearGradient>
		<path class="st5" d="M958.1,316.7l-17.5,30.8l-41.9-72.8c-4-7.5-1.3-16.8,6.1-20.9c2.3-1.2,4.8-1.9,7.3-1.9c1.4-0.2,2.7-0.2,4.1,0
			c3.8,1,7.1,3.5,9.2,7.1L958.1,316.7z"/>
		
			<linearGradient id="SVGID_7_" gradientUnits="userSpaceOnUse" x1="-1178.7693" y1="-1884.3914" x2="-1178.7693" y2="-1700.7223" gradientTransform="matrix(1 0 0 1 1918.92 2065.54)">
			<stop  offset="0" style="stop-color:#FFFFFF"/>
			<stop  offset="1" style="stop-color:#FFFFFF;stop-opacity:0.7"/>
		</linearGradient>
		<path class="st6" d="M740.2,365c-8.4,0-15.2-6.9-15.2-15.4l0,0v-153c0-8.5,6.8-15.4,15.2-15.4s15.2,6.9,15.2,15.4v152.8
			c0.1,8.5-6.6,15.5-15,15.6L740.2,365z"/>
		
			<linearGradient id="SVGID_8_" gradientUnits="userSpaceOnUse" x1="-1321.7323" y1="-1805.0132" x2="-1246.7177" y2="-1761.698" gradientTransform="matrix(1 0 0 1 1918.92 2065.54)">
			<stop  offset="0" style="stop-color:#FFFFFF"/>
			<stop  offset="1" style="stop-color:#FFFFFF;stop-opacity:0.5"/>
		</linearGradient>
		<path class="st7" d="M696.3,300.2c-2.4-1.4-5-2.2-7.8-2.1c-1.3,0-2.7,0.2-4,0.5c-1.3,0.4-2.5,0.9-3.7,1.6l-2,1.3L658,313.5
			l-56.5-33.4c-3.4-2-5.9-5.3-7-9.3c-2.3-8.2,2.5-16.6,10.5-18.9l0.2,0c1.3-0.2,2.6-0.2,3.9,0c2.7,0,5.3,0.7,7.6,2L696.3,300.2z"/>
		
			<linearGradient id="SVGID_9_" gradientUnits="userSpaceOnUse" x1="-1367.0104" y1="-1695.9513" x2="-1346.5052" y2="-1716.3884" gradientTransform="matrix(1 0 0 1 1918.92 2065.54)">
			<stop  offset="0" style="stop-color:#FFFFFF;stop-opacity:0.7"/>
			<stop  offset="1" style="stop-color:#FFFFFF"/>
		</linearGradient>
		<ellipse class="st8" cx="562.2" cy="359.4" rx="14.4" ry="14.6"/>
		
			<linearGradient id="SVGID_10_" gradientUnits="userSpaceOnUse" x1="-1484.3677" y1="-1702.3198" x2="-1385.2672" y2="-1801.4885" gradientTransform="matrix(1 0 0 1 1918.92 2065.54)">
			<stop  offset="0" style="stop-color:#FFFFFF;stop-opacity:0.6"/>
			<stop  offset="1" style="stop-color:#FFFFFF"/>
		</linearGradient>
		<path class="st9" d="M450.5,373.7c-7.3,0-13.2-6-13.2-13.4s5.9-13.3,13.2-13.3h49.8c4.4-0.1,7.8-3.7,7.7-8.1
			c-0.1-3.5-2.4-6.6-5.6-7.5l-42.9-11.5c-18.1-5.5-28.4-24.9-22.9-43.3c4.3-14.5,17.4-24.4,32.2-24.7h47.2c7.3,0,13.2,6,13.2,13.4
			c0,7.4-5.9,13.4-13.2,13.4h-47.2c-4.4,0-7.9,3.5-8,7.9c0,3.7,2.4,7,5.8,7.8l42.9,11.5c18.2,5.3,28.7,24.5,23.5,42.9
			c-4.2,14.8-17.6,25.1-32.8,25.2L450.5,373.7z"/>
		
			<linearGradient id="SVGID_11_" gradientUnits="userSpaceOnUse" x1="-1334.7041" y1="-1664.8585" x2="-1205.4109" y2="-1739.5024" gradientTransform="matrix(1 0 0 1 1918.92 2065.54)">
			<stop  offset="0" style="stop-color:#FFFFFF;stop-opacity:0.8"/>
			<stop  offset="1" style="stop-color:#FFFFFF"/>
		</linearGradient>
		<path class="st10" d="M696.2,326.8l-2.2,1.3l0,0l-69.8,40.7V413c0,3.8-1.2,7.4-3.6,10.2c-3.5,4.2-8.8,6.2-14,5.4
			c-2.5-0.3-4.9-1.4-7-2.9c-3.7-2.8-6-7.4-6-12.3V360l0,0v-2l0,0v-1.6l0,0v-1.5l0.3-0.8l0,0v-1.3l0,0l0.5-0.8l0,0l0.7-0.8l0,0
			l0.7-0.6l0.5-0.4l0,0l0.5-0.4l0.7-0.4l0,0l60.3-35.8l20.9-12.1l2.1-1.2c2.3-1.4,5-2.1,7.6-2c8.4,0,15.2,6.9,15.2,15.4
			c-0.1,5.6-3,10.8-7.7,13.4L696.2,326.8z"/>
		
			<linearGradient id="SVGID_12_" gradientUnits="userSpaceOnUse" x1="-1006.5203" y1="-1639.2562" x2="-906.9853" y2="-1811.6079" gradientTransform="matrix(1 0 0 1 1918.92 2065.54)">
			<stop  offset="0" style="stop-color:#FFFFFF;stop-opacity:0.7"/>
			<stop  offset="1" style="stop-color:#FFFFFF"/>
		</linearGradient>
		<path class="st11" d="M920.6,428.7c-8.4,0-15.2-6.9-15.2-15.4c0-2.7,0.7-5.4,2-7.7l83.3-146.6c2.1-3.6,5.5-6.1,9.3-7.1
			c8.1-2.2,16.5,2.7,18.6,10.9c1,3.9,0.5,8.2-1.5,11.7L933.8,421C930.9,425.8,925.9,428.7,920.6,428.7z"/>
		
			<linearGradient id="SVGID_13_" gradientUnits="userSpaceOnUse" x1="-1088.7002" y1="-1809.874" x2="-1026.9504" y2="-1703.0095" gradientTransform="matrix(1 0 0 1 1918.92 2065.54)">
			<stop  offset="0" style="stop-color:#FFFFFF"/>
			<stop  offset="1" style="stop-color:#FFFFFF;stop-opacity:0.7"/>
		</linearGradient>
		<path class="st12" d="M898.7,353.4c-2.1,8.2-10.5,13.2-18.6,11c-3.9-1-7.2-3.6-9.3-7.2l-32.7-57.4l-11.9-21.2l-1.3-2.2
			c-4.2-7.4-1.7-16.8,5.6-21c1.1-0.7,2.3-1.2,3.6-1.5c6.6-1.8,13.6,1.1,17.1,7.1l1.3,2.4l0,0l3.1,5.4l41.5,72.8
			C899.3,344.9,899.8,349.3,898.7,353.4z"/>
	</g>
</g>
</svg>
