<svg id="Layer_1" data-name="Layer 1" xmlns="http://www.w3.org/2000/svg" viewBox="0 0 481 481"><defs><style>.cls-1{fill:#fcbb30;}.cls-2,.cls-3{fill:none;stroke:#502c88;stroke-miterlimit:10;}.cls-2{stroke-width:20px;}.cls-3{stroke-width:15px;}.cls-4{fill:#502c88;}.cls-5{fill:#622e7e;}.cls-6{fill:#fabb34;}</style></defs><title>clock</title><circle class="cls-1" cx="240.5" cy="240.5" r="126.58"/><circle class="cls-2" cx="240.5" cy="240.5" r="178.97"/><circle class="cls-3" cx="240.5" cy="240.5" r="233"/><rect class="cls-4" x="187.04" y="187.04" width="12.66" height="113.92" transform="translate(-54.13 433.87) rotate(-90)"/><rect class="cls-4" x="237.67" y="136.41" width="12.66" height="113.92" transform="translate(484.5 383.23) rotate(180)"/><rect class="cls-5" x="234.17" y="91.77" width="12.66" height="12.66"/><rect class="cls-5" x="91.77" y="234.17" width="12.66" height="12.66"/><rect class="cls-5" x="376.58" y="234.17" width="12.66" height="12.66"/><rect class="cls-5" x="240.5" y="376.58" width="12.66" height="12.66"/><rect class="cls-6" x="89.14" y="89.14" width="14.86" height="14.86" transform="translate(-43.5 93.07) rotate(-45)"/><rect class="cls-6" x="89.14" y="384" width="14.86" height="14.86" transform="translate(-252 179.43) rotate(-45)"/><rect class="cls-6" x="384" y="89.14" width="14.86" height="14.86" transform="translate(42.86 301.57) rotate(-45)"/><rect class="cls-6" x="390.55" y="377.45" width="14.86" height="14.86" transform="translate(-159.08 390.64) rotate(-45)"/><path class="cls-5" d="M394.49,307.81" transform="translate(-3.5 -3.5)"/></svg>