<svg id="Layer_1" data-name="Layer 1" xmlns="http://www.w3.org/2000/svg" viewBox="0 0 500 420"><defs><style>.cls-1{fill:#502c88;}.cls-2{fill:#fabb34;}.cls-3{fill:#622e7e;}</style></defs><title>computer</title><rect class="cls-1" width="500" height="20.43" rx="1" ry="1"/><rect class="cls-1" y="336.81" width="500" height="20.43" rx="1" ry="1"/><rect class="cls-1" x="479.57" width="20.43" height="357.23" rx="1" ry="1"/><rect class="cls-1" width="20.43" height="357.23" rx="1" ry="1"/><rect class="cls-1" x="40" y="38.24" width="420" height="20" rx="0.82" ry="0.82"/><rect class="cls-1" x="40" y="300" width="420" height="20" rx="0.82" ry="0.82"/><rect class="cls-1" x="40" y="40" width="20" height="280" rx="0.82" ry="0.82"/><rect class="cls-1" x="440" y="40" width="20" height="280" rx="0.82" ry="0.82"/><rect class="cls-2" x="83.89" y="93.37" width="96.11" height="83.26"/><rect class="cls-2" x="320" y="93.37" width="96.11" height="83.26"/><rect class="cls-3" x="70" y="210" width="230" height="10"/><rect class="cls-3" x="70" y="240" width="230" height="10"/><rect class="cls-3" x="70" y="270" width="230" height="10"/><rect class="cls-3" x="330" y="240" width="100" height="10"/><rect class="cls-3" x="330" y="210" width="100" height="10"/><rect class="cls-3" x="330" y="270" width="100" height="10"/><rect class="cls-3" x="80" y="70" width="10" height="10"/><rect class="cls-3" x="100" y="70" width="10" height="10"/><rect class="cls-3" x="120" y="70" width="10" height="10"/><rect class="cls-2" x="203.89" y="93.37" width="96.11" height="83.26"/><rect class="cls-1" x="170" y="350" width="20" height="60"/><rect class="cls-1" x="300" y="350" width="20" height="60"/><rect class="cls-1" x="120" y="400" width="250" height="20"/></svg>